<mxfile host="Electron" agent="Mozilla/5.0 (Windows NT 10.0; Win64; x64) AppleWebKit/537.36 (KHTML, like Gecko) draw.io/28.1.2 Chrome/138.0.7204.243 Electron/37.4.0 Safari/537.36" version="28.1.2">
  <diagram name="Page-1" id="xsYCff7whP4TqLQf7cTJ">
    <mxGraphModel dx="2437" dy="824" grid="0" gridSize="10" guides="1" tooltips="1" connect="1" arrows="1" fold="1" page="1" pageScale="1" pageWidth="850" pageHeight="1100" background="none" math="0" shadow="0">
      <root>
        <mxCell id="0" />
        <mxCell id="1" parent="0" />
        <mxCell id="im6KT_Uo68lldDrzzcDX-31" value="" style="shape=umlLifeline;perimeter=lifelinePerimeter;whiteSpace=wrap;html=1;container=1;dropTarget=0;collapsible=0;recursiveResize=0;outlineConnect=0;portConstraint=eastwest;newEdgeStyle={&quot;curved&quot;:0,&quot;rounded&quot;:0};participant=umlActor;" vertex="1" parent="1">
          <mxGeometry x="76" y="57" width="20" height="470" as="geometry" />
        </mxCell>
        <mxCell id="im6KT_Uo68lldDrzzcDX-50" value="" style="html=1;points=[[0,0,0,0,5],[0,1,0,0,-5],[1,0,0,0,5],[1,1,0,0,-5]];perimeter=orthogonalPerimeter;outlineConnect=0;targetShapes=umlLifeline;portConstraint=eastwest;newEdgeStyle={&quot;curved&quot;:0,&quot;rounded&quot;:0};" vertex="1" parent="im6KT_Uo68lldDrzzcDX-31">
          <mxGeometry x="5" y="72" width="10" height="389" as="geometry" />
        </mxCell>
        <mxCell id="im6KT_Uo68lldDrzzcDX-32" value="Content Controller" style="shape=umlLifeline;perimeter=lifelinePerimeter;whiteSpace=wrap;html=1;container=1;dropTarget=0;collapsible=0;recursiveResize=0;outlineConnect=0;portConstraint=eastwest;newEdgeStyle={&quot;curved&quot;:0,&quot;rounded&quot;:0};" vertex="1" parent="1">
          <mxGeometry x="140" y="57" width="100" height="470" as="geometry" />
        </mxCell>
        <mxCell id="im6KT_Uo68lldDrzzcDX-33" value="Saftey Checker" style="shape=umlLifeline;perimeter=lifelinePerimeter;whiteSpace=wrap;html=1;container=1;dropTarget=0;collapsible=0;recursiveResize=0;outlineConnect=0;portConstraint=eastwest;newEdgeStyle={&quot;curved&quot;:0,&quot;rounded&quot;:0};" vertex="1" parent="1">
          <mxGeometry x="271" y="57" width="100" height="470" as="geometry" />
        </mxCell>
        <mxCell id="im6KT_Uo68lldDrzzcDX-52" value="" style="html=1;points=[[0,0,0,0,5],[0,1,0,0,-5],[1,0,0,0,5],[1,1,0,0,-5]];perimeter=orthogonalPerimeter;outlineConnect=0;targetShapes=umlLifeline;portConstraint=eastwest;newEdgeStyle={&quot;curved&quot;:0,&quot;rounded&quot;:0};" vertex="1" parent="im6KT_Uo68lldDrzzcDX-33">
          <mxGeometry x="45" y="102" width="10" height="98" as="geometry" />
        </mxCell>
        <mxCell id="im6KT_Uo68lldDrzzcDX-34" value="Database" style="shape=umlLifeline;perimeter=lifelinePerimeter;whiteSpace=wrap;html=1;container=1;dropTarget=0;collapsible=0;recursiveResize=0;outlineConnect=0;portConstraint=eastwest;newEdgeStyle={&quot;curved&quot;:0,&quot;rounded&quot;:0};" vertex="1" parent="1">
          <mxGeometry x="402" y="57" width="100" height="470" as="geometry" />
        </mxCell>
        <mxCell id="im6KT_Uo68lldDrzzcDX-53" value="" style="html=1;points=[[0,0,0,0,5],[0,1,0,0,-5],[1,0,0,0,5],[1,1,0,0,-5]];perimeter=orthogonalPerimeter;outlineConnect=0;targetShapes=umlLifeline;portConstraint=eastwest;newEdgeStyle={&quot;curved&quot;:0,&quot;rounded&quot;:0};" vertex="1" parent="im6KT_Uo68lldDrzzcDX-34">
          <mxGeometry x="45" y="153" width="10" height="216" as="geometry" />
        </mxCell>
        <mxCell id="im6KT_Uo68lldDrzzcDX-35" value="AI Quiz Generator" style="shape=umlLifeline;perimeter=lifelinePerimeter;whiteSpace=wrap;html=1;container=1;dropTarget=0;collapsible=0;recursiveResize=0;outlineConnect=0;portConstraint=eastwest;newEdgeStyle={&quot;curved&quot;:0,&quot;rounded&quot;:0};" vertex="1" parent="1">
          <mxGeometry x="533" y="57" width="100" height="470" as="geometry" />
        </mxCell>
        <mxCell id="im6KT_Uo68lldDrzzcDX-54" value="" style="html=1;points=[[0,0,0,0,5],[0,1,0,0,-5],[1,0,0,0,5],[1,1,0,0,-5]];perimeter=orthogonalPerimeter;outlineConnect=0;targetShapes=umlLifeline;portConstraint=eastwest;newEdgeStyle={&quot;curved&quot;:0,&quot;rounded&quot;:0};" vertex="1" parent="im6KT_Uo68lldDrzzcDX-35">
          <mxGeometry x="45" y="209" width="10" height="60" as="geometry" />
        </mxCell>
        <mxCell id="im6KT_Uo68lldDrzzcDX-36" value="Exam Manger" style="shape=umlLifeline;perimeter=lifelinePerimeter;whiteSpace=wrap;html=1;container=1;dropTarget=0;collapsible=0;recursiveResize=0;outlineConnect=0;portConstraint=eastwest;newEdgeStyle={&quot;curved&quot;:0,&quot;rounded&quot;:0};" vertex="1" parent="1">
          <mxGeometry x="664" y="57" width="100" height="470" as="geometry" />
        </mxCell>
        <mxCell id="im6KT_Uo68lldDrzzcDX-78" value="" style="html=1;points=[[0,0,0,0,5],[0,1,0,0,-5],[1,0,0,0,5],[1,1,0,0,-5]];perimeter=orthogonalPerimeter;outlineConnect=0;targetShapes=umlLifeline;portConstraint=eastwest;newEdgeStyle={&quot;curved&quot;:0,&quot;rounded&quot;:0};" vertex="1" parent="im6KT_Uo68lldDrzzcDX-36">
          <mxGeometry x="45" y="278" width="10" height="121" as="geometry" />
        </mxCell>
        <mxCell id="im6KT_Uo68lldDrzzcDX-38" value="Result Processor" style="shape=umlLifeline;perimeter=lifelinePerimeter;whiteSpace=wrap;html=1;container=1;dropTarget=0;collapsible=0;recursiveResize=0;outlineConnect=0;portConstraint=eastwest;newEdgeStyle={&quot;curved&quot;:0,&quot;rounded&quot;:0};" vertex="1" parent="1">
          <mxGeometry x="795" y="57" width="100" height="470" as="geometry" />
        </mxCell>
        <mxCell id="im6KT_Uo68lldDrzzcDX-79" value="" style="html=1;points=[[0,0,0,0,5],[0,1,0,0,-5],[1,0,0,0,5],[1,1,0,0,-5]];perimeter=orthogonalPerimeter;outlineConnect=0;targetShapes=umlLifeline;portConstraint=eastwest;newEdgeStyle={&quot;curved&quot;:0,&quot;rounded&quot;:0};" vertex="1" parent="im6KT_Uo68lldDrzzcDX-38">
          <mxGeometry x="45" y="379" width="10" height="66" as="geometry" />
        </mxCell>
        <mxCell id="im6KT_Uo68lldDrzzcDX-39" value="Upload Content" style="html=1;verticalAlign=bottom;endArrow=block;curved=0;rounded=0;" edge="1" parent="1" source="im6KT_Uo68lldDrzzcDX-31" target="im6KT_Uo68lldDrzzcDX-32">
          <mxGeometry width="80" relative="1" as="geometry">
            <mxPoint x="96" y="129" as="sourcePoint" />
            <mxPoint x="176" y="129" as="targetPoint" />
            <Array as="points">
              <mxPoint x="141" y="135" />
            </Array>
          </mxGeometry>
        </mxCell>
        <mxCell id="im6KT_Uo68lldDrzzcDX-40" value="Check Saftey" style="html=1;verticalAlign=bottom;endArrow=block;curved=0;rounded=0;" edge="1" parent="1" source="im6KT_Uo68lldDrzzcDX-32" target="im6KT_Uo68lldDrzzcDX-33">
          <mxGeometry width="80" relative="1" as="geometry">
            <mxPoint x="217" y="143" as="sourcePoint" />
            <mxPoint x="321" y="143" as="targetPoint" />
            <Array as="points">
              <mxPoint x="262" y="164" />
              <mxPoint x="294" y="164" />
            </Array>
          </mxGeometry>
        </mxCell>
        <mxCell id="im6KT_Uo68lldDrzzcDX-42" value="Safe" style="html=1;verticalAlign=bottom;endArrow=open;dashed=1;endSize=8;curved=0;rounded=0;" edge="1" parent="1">
          <mxGeometry relative="1" as="geometry">
            <mxPoint x="316" y="196" as="sourcePoint" />
            <mxPoint x="195" y="196" as="targetPoint" />
          </mxGeometry>
        </mxCell>
        <mxCell id="im6KT_Uo68lldDrzzcDX-43" value="Save Content" style="html=1;verticalAlign=bottom;endArrow=block;curved=0;rounded=0;" edge="1" parent="1">
          <mxGeometry width="80" relative="1" as="geometry">
            <mxPoint x="190.03488372093022" y="221.00000000000006" as="sourcePoint" />
            <mxPoint x="451.5000000000001" y="221.00000000000006" as="targetPoint" />
            <Array as="points">
              <mxPoint x="288.34" y="221" />
            </Array>
          </mxGeometry>
        </mxCell>
        <mxCell id="im6KT_Uo68lldDrzzcDX-44" value="Generate Quiz" style="html=1;verticalAlign=bottom;endArrow=block;curved=0;rounded=0;" edge="1" parent="1" source="im6KT_Uo68lldDrzzcDX-32" target="im6KT_Uo68lldDrzzcDX-35">
          <mxGeometry width="80" relative="1" as="geometry">
            <mxPoint x="189.81034482758616" y="280" as="sourcePoint" />
            <mxPoint x="582.5" y="280" as="targetPoint" />
            <Array as="points">
              <mxPoint x="352.34" y="280" />
            </Array>
          </mxGeometry>
        </mxCell>
        <mxCell id="im6KT_Uo68lldDrzzcDX-45" value="Save Quiz" style="html=1;verticalAlign=bottom;endArrow=open;dashed=1;endSize=8;curved=0;rounded=0;" edge="1" parent="1">
          <mxGeometry relative="1" as="geometry">
            <mxPoint x="582.5" y="313" as="sourcePoint" />
            <mxPoint x="451.81034482758605" y="313" as="targetPoint" />
          </mxGeometry>
        </mxCell>
        <mxCell id="im6KT_Uo68lldDrzzcDX-51" value="" style="html=1;points=[[0,0,0,0,5],[0,1,0,0,-5],[1,0,0,0,5],[1,1,0,0,-5]];perimeter=orthogonalPerimeter;outlineConnect=0;targetShapes=umlLifeline;portConstraint=eastwest;newEdgeStyle={&quot;curved&quot;:0,&quot;rounded&quot;:0};" vertex="1" parent="1">
          <mxGeometry x="185" y="153" width="10" height="142" as="geometry" />
        </mxCell>
        <mxCell id="im6KT_Uo68lldDrzzcDX-59" value="alt" style="shape=umlFrame;whiteSpace=wrap;html=1;pointerEvents=0;" vertex="1" parent="1">
          <mxGeometry x="-9" y="145" width="497" height="117" as="geometry" />
        </mxCell>
        <mxCell id="im6KT_Uo68lldDrzzcDX-60" value="Unsafe Error Terminate" style="html=1;verticalAlign=bottom;endArrow=open;dashed=1;endSize=8;curved=0;rounded=0;" edge="1" parent="1">
          <mxGeometry relative="1" as="geometry">
            <mxPoint x="316" y="252" as="sourcePoint" />
            <mxPoint x="195" y="252" as="targetPoint" />
          </mxGeometry>
        </mxCell>
        <mxCell id="im6KT_Uo68lldDrzzcDX-61" value="" style="endArrow=none;dashed=1;html=1;dashPattern=1 3;strokeWidth=2;rounded=0;exitX=0.001;exitY=0.745;exitDx=0;exitDy=0;exitPerimeter=0;entryX=0.998;entryY=0.749;entryDx=0;entryDy=0;entryPerimeter=0;" edge="1" parent="1" source="im6KT_Uo68lldDrzzcDX-59" target="im6KT_Uo68lldDrzzcDX-59">
          <mxGeometry width="50" height="50" relative="1" as="geometry">
            <mxPoint x="317" y="270" as="sourcePoint" />
            <mxPoint x="367" y="220" as="targetPoint" />
          </mxGeometry>
        </mxCell>
        <mxCell id="im6KT_Uo68lldDrzzcDX-62" value="Safe Content" style="text;html=1;align=center;verticalAlign=middle;resizable=0;points=[];autosize=1;strokeColor=none;fillColor=none;" vertex="1" parent="1">
          <mxGeometry x="-12" y="178" width="88" height="26" as="geometry" />
        </mxCell>
        <mxCell id="im6KT_Uo68lldDrzzcDX-63" value="Else" style="text;html=1;align=center;verticalAlign=middle;resizable=0;points=[];autosize=1;strokeColor=none;fillColor=none;" vertex="1" parent="1">
          <mxGeometry x="-9" y="230" width="41" height="26" as="geometry" />
        </mxCell>
        <mxCell id="im6KT_Uo68lldDrzzcDX-64" value="Statistics Processor" style="shape=umlLifeline;perimeter=lifelinePerimeter;whiteSpace=wrap;html=1;container=1;dropTarget=0;collapsible=0;recursiveResize=0;outlineConnect=0;portConstraint=eastwest;newEdgeStyle={&quot;curved&quot;:0,&quot;rounded&quot;:0};" vertex="1" parent="1">
          <mxGeometry x="919" y="57" width="100" height="470" as="geometry" />
        </mxCell>
        <mxCell id="im6KT_Uo68lldDrzzcDX-80" value="" style="html=1;points=[[0,0,0,0,5],[0,1,0,0,-5],[1,0,0,0,5],[1,1,0,0,-5]];perimeter=orthogonalPerimeter;outlineConnect=0;targetShapes=umlLifeline;portConstraint=eastwest;newEdgeStyle={&quot;curved&quot;:0,&quot;rounded&quot;:0};" vertex="1" parent="im6KT_Uo68lldDrzzcDX-64">
          <mxGeometry x="45" y="422" width="10" height="44" as="geometry" />
        </mxCell>
        <mxCell id="im6KT_Uo68lldDrzzcDX-67" value="Publish Quiz" style="html=1;verticalAlign=bottom;endArrow=block;curved=0;rounded=0;" edge="1" parent="1">
          <mxGeometry width="80" relative="1" as="geometry">
            <mxPoint x="91" y="346.5" as="sourcePoint" />
            <mxPoint x="713.5" y="346.5" as="targetPoint" />
          </mxGeometry>
        </mxCell>
        <mxCell id="im6KT_Uo68lldDrzzcDX-68" value="Instructor" style="text;html=1;align=center;verticalAlign=middle;resizable=0;points=[];autosize=1;strokeColor=none;fillColor=none;" vertex="1" parent="1">
          <mxGeometry x="52" y="97" width="68" height="26" as="geometry" />
        </mxCell>
        <mxCell id="im6KT_Uo68lldDrzzcDX-69" value="" style="shape=umlLifeline;perimeter=lifelinePerimeter;whiteSpace=wrap;html=1;container=1;dropTarget=0;collapsible=0;recursiveResize=0;outlineConnect=0;portConstraint=eastwest;newEdgeStyle={&quot;curved&quot;:0,&quot;rounded&quot;:0};participant=umlActor;" vertex="1" parent="1">
          <mxGeometry x="-35" y="57" width="20" height="470" as="geometry" />
        </mxCell>
        <mxCell id="im6KT_Uo68lldDrzzcDX-77" value="" style="html=1;points=[[0,0,0,0,5],[0,1,0,0,-5],[1,0,0,0,5],[1,1,0,0,-5]];perimeter=orthogonalPerimeter;outlineConnect=0;targetShapes=umlLifeline;portConstraint=eastwest;newEdgeStyle={&quot;curved&quot;:0,&quot;rounded&quot;:0};" vertex="1" parent="im6KT_Uo68lldDrzzcDX-69">
          <mxGeometry x="5" y="311" width="10" height="137" as="geometry" />
        </mxCell>
        <mxCell id="im6KT_Uo68lldDrzzcDX-70" value="Student" style="text;html=1;align=center;verticalAlign=middle;resizable=0;points=[];autosize=1;strokeColor=none;fillColor=none;" vertex="1" parent="1">
          <mxGeometry x="-54.5" y="97" width="59" height="26" as="geometry" />
        </mxCell>
        <mxCell id="im6KT_Uo68lldDrzzcDX-71" value="Attempt Quiz" style="html=1;verticalAlign=bottom;endArrow=block;curved=0;rounded=0;" edge="1" parent="1">
          <mxGeometry width="80" relative="1" as="geometry">
            <mxPoint x="-25.333333333333485" y="385" as="sourcePoint" />
            <mxPoint x="713.5" y="385" as="targetPoint" />
          </mxGeometry>
        </mxCell>
        <mxCell id="im6KT_Uo68lldDrzzcDX-72" value="Fetch Quiz" style="html=1;verticalAlign=bottom;endArrow=open;dashed=1;endSize=8;curved=0;rounded=0;" edge="1" parent="1">
          <mxGeometry relative="1" as="geometry">
            <mxPoint x="713.5" y="417" as="sourcePoint" />
            <mxPoint x="451.6666666666665" y="417" as="targetPoint" />
          </mxGeometry>
        </mxCell>
        <mxCell id="im6KT_Uo68lldDrzzcDX-73" value="Submit Answers" style="html=1;verticalAlign=bottom;endArrow=block;curved=0;rounded=0;" edge="1" parent="1">
          <mxGeometry width="80" relative="1" as="geometry">
            <mxPoint x="713.6666666666665" y="444" as="sourcePoint" />
            <mxPoint x="844.5" y="444" as="targetPoint" />
          </mxGeometry>
        </mxCell>
        <mxCell id="im6KT_Uo68lldDrzzcDX-74" value="View Marks" style="html=1;verticalAlign=bottom;endArrow=open;dashed=1;endSize=8;curved=0;rounded=0;" edge="1" parent="1">
          <mxGeometry relative="1" as="geometry">
            <mxPoint x="844.5" y="472" as="sourcePoint" />
            <mxPoint x="85.66666666666674" y="472" as="targetPoint" />
          </mxGeometry>
        </mxCell>
        <mxCell id="im6KT_Uo68lldDrzzcDX-75" value="Calculate Statistics" style="html=1;verticalAlign=bottom;endArrow=block;curved=0;rounded=0;" edge="1" parent="1">
          <mxGeometry width="80" relative="1" as="geometry">
            <mxPoint x="844.810344827586" y="487" as="sourcePoint" />
            <mxPoint x="968.5" y="487" as="targetPoint" />
          </mxGeometry>
        </mxCell>
        <mxCell id="im6KT_Uo68lldDrzzcDX-76" value="View Statistics" style="html=1;verticalAlign=bottom;endArrow=open;dashed=1;endSize=8;curved=0;rounded=0;" edge="1" parent="1">
          <mxGeometry relative="1" as="geometry">
            <mxPoint x="968.5" y="518" as="sourcePoint" />
            <mxPoint x="85.81034482758628" y="518" as="targetPoint" />
          </mxGeometry>
        </mxCell>
        <mxCell id="im6KT_Uo68lldDrzzcDX-81" value="View Mark" style="html=1;verticalAlign=bottom;endArrow=open;dashed=1;endSize=8;curved=0;rounded=0;" edge="1" parent="1">
          <mxGeometry relative="1" as="geometry">
            <mxPoint x="844.5" y="496" as="sourcePoint" />
            <mxPoint x="-25.07142857142867" y="496" as="targetPoint" />
          </mxGeometry>
        </mxCell>
      </root>
    </mxGraphModel>
  </diagram>
</mxfile>
